<?xml version="1.0" standalone="no"?>
<!DOCTYPE svg PUBLIC "-//W3C//DTD SVG 20010904//EN"
 "http://www.w3.org/TR/2001/REC-SVG-20010904/DTD/svg10.dtd">
<svg version="1.0" xmlns="http://www.w3.org/2000/svg"
 width="700.000000pt" height="700.000000pt" viewBox="0 0 700.000000 700.000000"
 preserveAspectRatio="xMidYMid meet">
<metadata>
Created by potrace 1.11, written by Peter Selinger 2001-2013
</metadata>
<g transform="translate(0.000000,700.000000) scale(0.100000,-0.100000)"
fill="#000000" stroke="none">
<path d="M3345 6994 c-891 -54 -1652 -382 -2272 -977 -600 -577 -966 -1338
-1054 -2187 -16 -148 -16 -512 0 -660 102 -1000 601 -1885 1394 -2474 736
-547 1639 -781 2552 -660 928 122 1766 615 2336 1374 109 146 253 376 327 526
187 374 309 800 353 1229 16 154 16 516 0 670 -67 653 -299 1250 -687 1765
-587 779 -1448 1269 -2414 1374 -140 16 -431 26 -535 20z m1404 -2281 c678
-499 1324 -975 1434 -1056 111 -81 203 -151 204 -155 3 -9 -2872 -2127 -2887
-2127 -11 0 -2889 2117 -2890 2125 0 3 93 74 208 158 114 83 763 561 1442
1062 679 501 1240 908 1246 906 6 -2 565 -413 1243 -913z"/>
<path d="M3335 4706 c-402 -59 -739 -299 -917 -650 l-40 -79 34 7 c159 33 246
40 483 40 273 1 372 -10 593 -64 413 -101 802 -312 1101 -596 56 -53 103 -95
105 -93 13 12 28 224 22 298 -31 376 -203 693 -493 908 -251 186 -588 273
-888 229z"/>
<path d="M2730 3570 c-158 -15 -421 -68 -444 -90 -12 -12 11 -194 39 -299 105
-390 404 -709 785 -835 140 -46 234 -61 390 -60 272 0 509 77 719 234 83 62
206 183 247 242 32 46 32 46 -82 167 -315 335 -756 563 -1210 625 -147 20
-329 26 -444 16z"/>
</g>
</svg>
